#Comment line ignore any data following # character 
#Hierarchical Translation and Rotation (.htr) file 
[Header]	
#Header keywords are followed by a single value 
FileType HTR		#Single word string
DataType HTRS		#Translation followed by rotation and scale data
FileVersion 1		#integer
NumSegments 64		#integer
NumFrames 2		#integer
DataFrameRate 30		#integer, data frame rate in this file
EulerRotationOrder ZYX
CalibrationUnits mm
RotationUnits Degrees
GlobalAxisofGravity Y
BoneLengthAxis Y
ScaleFactor 1.00
[SegmentNames&Hierarchy]
#CHILD	PARENT
Pinger_Root GLOBAL
Pelvis Pinger_Root
L_Hip Pelvis
R_Hip Pelvis
Rear_Leg01 Pelvis
Spine1 Pelvis
L_Leg01 L_Hip
L_Leg02 L_Leg01
L_Leg03 L_Leg02
L_Foot L_Leg03
L_Toe1_01 L_Foot
L_Toe2_01 L_Foot
L_Toe3_01 L_Foot
planeAlignerLeft L_Foot
L_Toe1_02 L_Toe1_01
L_Toe1_03 L_Toe1_02
L_Toe2_02 L_Toe2_01
L_Toe2_03 L_Toe2_02
L_Toe3_02 L_Toe3_01
L_Toe3_03 L_Toe3_02
planeLockWeightLeft planeAlignerLeft
R_Leg01 R_Hip
R_Leg02 R_Leg01
R_Leg03 R_Leg02
R_Foot R_Leg03
planeAlignerRight R_Foot
R_Toe1_01 R_Foot
R_Toe2_01 R_Foot
R_Toe3_01 R_Foot
planeLockWeightRight planeAlignerRight
R_Toe1_02 R_Toe1_01
R_Toe1_03 R_Toe1_02
R_Toe2_02 R_Toe2_01
R_Toe2_03 R_Toe2_02
R_Toe3_02 R_Toe3_01
R_Toe3_03 R_Toe3_02
Rear_Leg02 Rear_Leg01
Rear_Leg03 Rear_Leg02
Rear_Leg04 Rear_Leg03
Rear_Foot Rear_Leg04
planeAlignerCenter Rear_Foot
Rear_Toe1_01 Rear_Foot
Rear_Toe2_01 Rear_Foot
Rear_Toe3_01 Rear_Foot
planeLockWeightCenter planeAlignerCenter
Rear_Toe1_02 Rear_Toe1_01
Rear_Toe1_03 Rear_Toe1_02
Rear_Toe2_02 Rear_Toe2_01
Rear_Toe2_03 Rear_Toe2_02
Rear_Toe3_02 Rear_Toe3_01
Rear_Toe3_03 Rear_Toe3_02
Back_Bone Spine1
Head Spine1
Motor_Bone Back_Bone
Ping_Mechanism Back_Bone
BN_LookIK Head
bottomMouth Head
L_Mouth01 Head
L_mouthFront Head
mouthGun Head
R_Mouth01 Head
R_mouthFront Head
TopMouth Head
weapon_bone Head
[BasePosition]
#SegmentName Tx, Ty, Tz, Rx, Ry, Rz, BoneLength
Pinger_Root 0.000000 0.000000 0.000000 -90.000000 0.000000 0.000000 10.000000 
Pelvis 0.000000 0.000000 0.000000 0.000000 0.000000 0.000000 10.000000 
L_Hip 0.000000 0.000000 0.000000 0.000000 0.000000 0.000000 10.000000 
R_Hip 0.000000 0.000000 0.000000 0.000000 0.000000 0.000000 10.000000 
Rear_Leg01 0.000000 0.000000 0.000000 0.000000 0.000000 0.000000 10.000000 
Spine1 0.000000 0.000000 0.000000 0.000000 0.000000 0.000000 10.000000 
L_Leg01 0.000000 0.000000 0.000000 0.000000 0.000000 0.000000 10.000000 
L_Leg02 0.000000 0.000000 0.000000 0.000000 0.000000 0.000000 10.000000 
L_Leg03 0.000000 0.000000 0.000000 0.000000 0.000000 0.000000 10.000000 
L_Foot 0.000000 0.000000 0.000000 0.000000 0.000000 0.000000 10.000000 
L_Toe1_01 0.000000 0.000000 0.000000 0.000000 0.000000 0.000000 10.000000 
L_Toe2_01 0.000000 0.000000 0.000000 0.000000 0.000000 0.000000 10.000000 
L_Toe3_01 0.000000 0.000000 0.000000 0.000000 0.000000 0.000000 10.000000 
planeAlignerLeft 0.000000 0.000000 0.000000 0.000000 0.000000 0.000000 10.000000 
L_Toe1_02 0.000000 0.000000 0.000000 0.000000 0.000000 0.000000 10.000000 
L_Toe1_03 0.000000 0.000000 0.000000 0.000000 0.000000 0.000000 10.000000 
L_Toe2_02 0.000000 0.000000 0.000000 0.000000 0.000000 0.000000 10.000000 
L_Toe2_03 0.000000 0.000000 0.000000 0.000000 0.000000 0.000000 10.000000 
L_Toe3_02 0.000000 0.000000 0.000000 0.000000 0.000000 0.000000 10.000000 
L_Toe3_03 0.000000 0.000000 0.000000 0.000000 0.000000 0.000000 10.000000 
planeLockWeightLeft 0.000000 0.000000 0.000000 0.000000 0.000000 0.000000 10.000000 
R_Leg01 0.000000 0.000000 0.000000 0.000000 0.000000 0.000000 10.000000 
R_Leg02 0.000000 0.000000 0.000000 0.000000 0.000000 0.000000 10.000000 
R_Leg03 0.000000 0.000000 0.000000 0.000000 0.000000 0.000000 10.000000 
R_Foot 0.000000 0.000000 0.000000 0.000000 0.000000 0.000000 10.000000 
planeAlignerRight 0.000000 0.000000 0.000000 0.000000 0.000000 0.000000 10.000000 
R_Toe1_01 0.000000 0.000000 0.000000 0.000000 0.000000 0.000000 10.000000 
R_Toe2_01 0.000000 0.000000 0.000000 0.000000 0.000000 0.000000 10.000000 
R_Toe3_01 0.000000 0.000000 0.000000 0.000000 0.000000 0.000000 10.000000 
planeLockWeightRight 0.000000 0.000000 0.000000 0.000000 0.000000 0.000000 10.000000 
R_Toe1_02 0.000000 0.000000 0.000000 0.000000 0.000000 0.000000 10.000000 
R_Toe1_03 0.000000 0.000000 0.000000 0.000000 0.000000 0.000000 10.000000 
R_Toe2_02 0.000000 0.000000 0.000000 0.000000 0.000000 0.000000 10.000000 
R_Toe2_03 0.000000 0.000000 0.000000 0.000000 0.000000 0.000000 10.000000 
R_Toe3_02 0.000000 0.000000 0.000000 0.000000 0.000000 0.000000 10.000000 
R_Toe3_03 0.000000 0.000000 0.000000 0.000000 0.000000 0.000000 10.000000 
Rear_Leg02 0.000000 0.000000 0.000000 0.000000 0.000000 0.000000 10.000000 
Rear_Leg03 0.000000 0.000000 0.000000 0.000000 0.000000 0.000000 10.000000 
Rear_Leg04 0.000000 0.000000 0.000000 0.000000 0.000000 0.000000 10.000000 
Rear_Foot 0.000000 0.000000 0.000000 0.000000 0.000000 0.000000 10.000000 
planeAlignerCenter 0.000000 0.000000 0.000000 0.000000 0.000000 0.000000 10.000000 
Rear_Toe1_01 0.000000 0.000000 0.000000 0.000000 0.000000 0.000000 10.000000 
Rear_Toe2_01 0.000000 0.000000 0.000000 0.000000 0.000000 0.000000 10.000000 
Rear_Toe3_01 0.000000 0.000000 0.000000 0.000000 0.000000 0.000000 10.000000 
planeLockWeightCenter 0.000000 0.000000 0.000000 0.000000 0.000000 0.000000 10.000000 
Rear_Toe1_02 0.000000 0.000000 0.000000 0.000000 0.000000 0.000000 10.000000 
Rear_Toe1_03 0.000000 0.000000 0.000000 0.000000 0.000000 0.000000 10.000000 
Rear_Toe2_02 0.000000 0.000000 0.000000 0.000000 0.000000 0.000000 10.000000 
Rear_Toe2_03 0.000000 0.000000 0.000000 0.000000 0.000000 0.000000 10.000000 
Rear_Toe3_02 0.000000 0.000000 0.000000 0.000000 0.000000 0.000000 10.000000 
Rear_Toe3_03 0.000000 0.000000 0.000000 0.000000 0.000000 0.000000 10.000000 
Back_Bone 0.000000 0.000000 0.000000 0.000000 0.000000 0.000000 10.000000 
Head 0.000000 0.000000 0.000000 0.000000 0.000000 0.000000 10.000000 
Motor_Bone 0.000000 0.000000 0.000000 0.000000 0.000000 0.000000 10.000000 
Ping_Mechanism 0.000000 0.000000 0.000000 0.000000 0.000000 0.000000 10.000000 
BN_LookIK 0.000000 0.000000 0.000000 0.000000 0.000000 0.000000 10.000000 
bottomMouth 0.000000 0.000000 0.000000 0.000000 0.000000 0.000000 10.000000 
L_Mouth01 0.000000 0.000000 0.000000 0.000000 0.000000 0.000000 10.000000 
L_mouthFront 0.000000 0.000000 0.000000 0.000000 0.000000 0.000000 10.000000 
mouthGun 0.000000 0.000000 0.000000 0.000000 0.000000 0.000000 10.000000 
R_Mouth01 0.000000 0.000000 0.000000 0.000000 0.000000 0.000000 10.000000 
R_mouthFront 0.000000 0.000000 0.000000 0.000000 0.000000 0.000000 10.000000 
TopMouth 0.000000 0.000000 0.000000 0.000000 0.000000 0.000000 10.000000 
weapon_bone 0.000000 0.000000 0.000000 0.000000 0.000000 0.000000 10.000000 
#Beginning of Data. Separated by tabs
#Fr	Tx	Ty	Tz	Rx	Ry	Rz	SF
[Pinger_Root]
9 0.000000 0.000000 0.000000 -0.000075 -0.000000 -0.000020 0.000000
10 0.000000 0.000000 0.000000 -0.000075 -0.000000 -0.000020 0.000000
[Pelvis]
9 -4.963459 809.629211 4563.882813 -49.751793 -80.795380 6.824245 4635.143066
10 -17.231821 815.359924 4594.212891 -69.252914 -81.762978 24.453255 4666.037109
[L_Hip]
9 5.766392 125.831482 872.656799 160.001236 -58.370327 116.329842 881.701050
10 5.766392 125.831482 872.656799 160.361404 -61.083023 114.956413 881.701050
[R_Hip]
9 5.765438 125.836372 -872.654907 35.888206 61.643661 122.850159 881.699829
10 5.765438 125.836372 -872.654907 35.030926 63.972179 121.970543 881.699829
[Rear_Leg01]
9 -192.298416 -925.602966 -0.001907 -155.994125 4.726324 -147.710693 945.367432
10 -192.298416 -925.602966 -0.001907 -159.092163 3.890022 -148.663437 945.367432
[Spine1]
9 290.604584 5.007505 0.000477 33.608269 -20.461264 14.832939 290.647736
10 290.604584 5.007505 0.000477 35.522297 -18.321346 13.886112 290.647736
[L_Leg01]
9 761.932007 -0.002384 -0.069261 38.441837 -2.112576 -49.202873 761.932068
10 761.932007 -0.002384 -0.069261 43.442181 -4.347908 -46.090359 761.932068
[L_Leg02]
9 1441.140503 -0.000954 -0.000715 -0.357299 0.049826 -102.550308 1441.140503
10 1441.140503 -0.000954 -0.000715 0.177716 -0.051961 -109.410057 1441.140503
[L_Leg03]
9 1686.963989 -0.000715 -0.000954 -0.008666 0.004121 112.752731 1686.963989
10 1686.963989 -0.000715 -0.000954 -0.010033 0.003226 112.950615 1686.963989
[L_Foot]
9 3041.570068 -30.715107 11.297464 -12.328584 45.422245 51.427986 3041.746094
10 3041.570068 -30.715107 11.297464 -13.544179 49.695824 53.454330 3041.746094
[L_Toe1_01]
9 -188.216690 -224.732346 -21.137953 96.982681 -7.153199 -172.407913 293.899567
10 -188.216690 -224.732346 -21.137953 97.889977 -7.945397 -173.131790 293.899567
[L_Toe2_01]
9 200.746536 -219.926590 148.838394 -88.260345 -25.800877 -53.478188 332.896027
10 200.746536 -219.926590 148.838394 -87.355759 -25.572670 -54.940617 332.896027
[L_Toe3_01]
9 188.832520 -219.859131 -191.078659 -105.299927 11.547816 -67.799873 347.140900
10 188.832520 -219.859131 -191.078659 -106.153671 9.147683 -68.699738 347.140900
[planeAlignerLeft]
9 47.702324 -604.368225 108.587105 169.306686 -76.298271 89.968506 615.895752
10 82.590591 -632.111816 127.928596 169.306686 -76.298271 89.968506 650.194031
[L_Toe1_02]
9 413.761139 0.000477 0.000000 0.001384 -25.926647 0.001384 413.761139
10 413.761139 0.000477 0.000000 0.001389 -25.315365 0.001389 413.761139
[L_Toe1_03]
9 464.317322 0.000358 -0.000089 0.004078 56.547832 0.004078 464.317322
10 464.317322 0.000358 -0.000089 0.005013 62.881073 0.005013 464.317322
[L_Toe2_02]
9 342.235809 -0.000477 0.000238 0.001190 -70.761879 0.001190 342.235809
10 342.235809 -0.000477 0.000238 0.001200 -65.860725 0.001200 342.235809
[L_Toe2_03]
9 420.210846 -0.000715 0.000000 0.015573 81.355728 0.015573 420.210846
10 420.210846 -0.000715 0.000000 -0.001724 71.075623 -0.005268 420.210846
[L_Toe3_02]
9 329.270111 0.000954 0.000000 0.001178 -79.814598 0.001178 329.270111
10 329.270111 0.000954 0.000000 0.001180 -77.842926 0.001180 329.270111
[L_Toe3_03]
9 439.137451 -0.001907 0.000954 -179.994263 81.199287 -179.990753 439.137451
10 439.137451 -0.001907 0.000954 -179.973221 87.691750 -179.969727 439.137451
[planeLockWeightLeft]
9 1000.000366 -0.000102 -0.000391 -0.011826 -0.004376 0.005620 1000.000366
10 1000.000366 -0.000153 -0.000412 -0.011826 -0.004376 0.005620 1000.000366
[R_Leg01]
9 761.455627 -0.001907 -0.000358 96.761017 -28.385862 47.349812 761.455688
10 761.455627 -0.001907 -0.000358 98.771164 -16.518665 52.915745 761.455688
[R_Leg02]
9 1441.140625 0.000000 -0.000238 -2.101068 -0.190895 -159.006653 1441.140625
10 1441.140625 0.000000 -0.000238 -1.547256 -0.014027 -144.013382 1441.140625
[R_Leg03]
9 1686.963989 0.000954 0.001431 0.055741 -0.028676 125.180428 1686.963989
10 1686.963989 0.000954 0.001431 0.040891 -0.018452 120.625267 1686.963989
[R_Foot]
9 3041.560059 -30.531288 -11.204481 7.432717 -22.831295 84.582085 3041.734131
10 3041.560059 -30.531288 -11.204481 11.212224 -22.764421 86.563522 3041.734131
[planeAlignerRight]
9 -141.176590 -725.861572 -154.710403 -36.633591 -80.644135 -59.151093 755.474121
10 -149.801743 -735.794922 -118.320641 -37.101063 -84.073158 -56.685036 760.154236
[R_Toe1_01]
9 -188.383347 -224.864899 21.052242 84.444656 1.167127 -156.959366 294.101532
10 -188.383347 -224.864899 21.052242 87.618095 2.321511 -153.231110 294.101532
[R_Toe2_01]
9 200.637817 -220.002121 -148.787384 -98.468597 21.653296 -61.173252 332.857574
10 200.637817 -220.002121 -148.787384 -99.773323 19.827570 -59.726147 332.857574
[R_Toe3_01]
9 188.606735 -220.092957 191.126343 -71.885399 -11.242835 -69.399223 347.192566
10 188.606735 -220.092957 191.126343 -72.407318 -12.186745 -64.912750 347.192566
[planeLockWeightRight]
9 0.000000 0.000038 -0.000019 -0.011823 -0.004379 -0.000027 0.000043
10 0.000000 0.000000 -0.000038 -0.011823 -0.004379 -0.000027 0.000038
[R_Toe1_02]
9 413.762085 0.000477 -0.000119 0.001384 -25.992632 0.001384 413.762085
10 413.762085 0.000477 -0.000119 0.001387 -25.652672 0.001387 413.762085
[R_Toe1_03]
9 464.317810 0.000000 0.001088 0.003699 52.999611 0.003699 464.317810
10 464.317810 0.000000 0.001088 0.001743 45.798008 -0.000148 464.317810
[R_Toe2_02]
9 342.234741 -0.000954 0.000238 0.001187 -72.727180 0.001187 342.234741
10 342.234741 -0.000954 0.000238 -0.002342 -75.284866 -0.002342 342.234741
[R_Toe2_03]
9 420.210846 0.000715 -0.000268 0.037461 86.409256 0.037461 420.210846
10 420.210846 0.000715 -0.000268 -179.981934 85.962303 -179.985428 420.210846
[R_Toe3_02]
9 329.270355 -0.000477 -0.000954 0.001181 -77.158028 0.001181 329.270355
10 329.270355 -0.000477 -0.000954 0.001178 -79.950066 0.001178 329.270355
[R_Toe3_03]
9 439.137939 0.000238 0.001431 0.000000 89.668976 0.003500 439.137939
10 439.137939 0.000238 0.001431 -179.994751 80.594872 -179.991241 439.137939
[Rear_Leg02]
9 1162.777710 -0.029802 0.005960 8.168402 -12.013600 -102.148430 1162.777710
10 1162.777710 -0.029802 0.005960 5.750551 -9.113413 -99.984985 1162.777710
[Rear_Leg03]
9 607.192505 -0.013351 -0.073195 0.010305 -0.005473 72.301971 607.192505
10 607.192505 -0.013351 -0.073195 0.010324 -0.005437 71.898773 607.192505
[Rear_Leg04]
9 995.874512 -0.020504 -0.011921 -0.041512 -0.015677 75.984062 995.874573
10 995.874512 -0.020504 -0.011921 -0.041333 -0.016142 74.696938 995.874573
[Rear_Foot]
9 3096.176270 -0.067472 -0.041425 -50.193268 70.962929 109.284317 3096.176270
10 3096.176270 -0.067472 -0.041425 -40.144970 73.127228 118.635963 3096.176270
[planeAlignerCenter]
9 -41.649811 -88.818199 -574.704590 12.240772 -0.001473 179.998184 583.016968
10 -40.207973 -87.726746 -581.343933 12.240772 -0.001473 179.998184 589.299133
[Rear_Toe1_01]
9 0.653352 83.966492 -371.173737 1.528325 25.207409 92.944153 380.553192
10 0.653352 83.966492 -371.173737 1.493804 25.718201 92.854553 380.553192
[Rear_Toe2_01]
9 178.200760 -294.826019 -362.060547 -6.997705 23.235779 -69.790154 499.765686
10 178.200760 -294.826019 -362.060547 -6.641838 23.599022 -69.568008 499.765686
[Rear_Toe3_01]
9 -153.359680 -308.780914 -362.060852 4.069590 21.115725 -112.817108 499.952881
10 -153.359680 -308.780914 -362.060852 4.090369 21.507765 -112.762062 499.952881
[planeLockWeightCenter]
9 1000.000122 0.000558 -0.000181 -0.011814 -0.004373 -0.000015 1000.000122
10 1000.000122 0.000545 -0.000169 -0.011814 -0.004373 -0.000015 1000.000122
[Rear_Toe1_02]
9 379.707825 0.194073 0.000477 -0.002645 -32.860893 -0.002645 379.707855
10 379.707825 0.194073 0.000477 -0.001848 -33.012650 -0.001848 379.707855
[Rear_Toe1_03]
9 500.129700 0.165701 0.000119 -0.067104 89.043251 -0.070601 500.129761
10 500.129700 0.165701 0.000119 -0.037717 88.330818 -0.041214 500.129761
[Rear_Toe2_02]
9 340.494507 0.000238 -0.000954 0.001198 -66.632393 0.001198 340.494507
10 340.494507 0.000238 -0.000954 0.001198 -66.606728 0.001198 340.494507
[Rear_Toe2_03]
9 433.103577 0.000000 0.000238 0.005411 64.947853 0.005411 433.103546
10 433.103577 0.000000 0.000238 0.005386 64.830597 0.005386 433.103546
[Rear_Toe3_02]
9 340.494141 -0.000358 -0.000477 -0.002424 -56.774414 -0.002424 340.494171
10 340.494141 -0.000358 -0.000477 -0.002422 -57.055691 -0.002422 340.494171
[Rear_Toe3_03]
9 433.103577 0.001431 -0.000238 0.000077 52.133610 -0.003620 433.103546
10 433.103577 0.001431 -0.000238 0.000059 52.480728 -0.003634 433.103546
[Back_Bone]
9 1312.175781 -701.934692 0.000954 0.256995 0.472372 -85.143433 1488.125488
10 1312.175781 -701.934692 0.000954 -0.009131 0.556130 -85.060066 1488.125488
[Head]
9 1406.159424 809.709290 0.001431 2.476371 -2.110098 6.522430 1622.625488
10 1406.159424 809.709290 0.001431 2.921217 -2.219393 6.288111 1622.625488
[Motor_Bone]
9 1158.364380 -417.834747 0.000477 -0.667945 0.093768 -105.896309 1231.419434
10 1158.364380 -417.834747 0.000477 -0.739515 0.095990 -105.893898 1231.419434
[Ping_Mechanism]
9 1223.843750 -434.243134 47.776501 0.000103 -0.000053 82.120995 1299.478027
10 1234.614014 -441.152924 37.286591 0.000103 -0.000053 82.120995 1311.593628
[BN_LookIK]
9 193.241119 1380.371704 -0.002861 0.000000 89.965736 -31.038179 1393.832153
10 193.241119 1380.371704 -0.002861 0.000000 89.965736 -31.038179 1393.832153
[bottomMouth]
9 -435.092926 615.759399 -0.000954 -0.000022 0.000016 73.527184 753.966492
10 -435.092926 615.759399 -0.000954 -0.000022 0.000016 73.527184 753.966492
[L_Mouth01]
9 554.440979 7.658243 838.222046 150.204178 23.759130 109.605339 1005.027161
10 554.440979 7.658243 838.222046 150.204178 23.759130 109.605339 1005.027161
[L_mouthFront]
9 551.629089 934.514771 339.150421 0.000081 2.804060 79.119301 1136.941284
10 551.629089 934.514771 339.150421 0.000081 2.804060 79.119301 1136.941284
[mouthGun]
9 55.332661 1627.420898 0.000000 0.000023 0.000009 -11.038128 1628.361328
10 55.332661 1627.420898 0.000000 0.000023 0.000009 -11.038128 1628.361328
[R_Mouth01]
9 554.442383 7.659197 -838.223938 29.795891 -23.759109 109.605331 1005.029541
10 554.442383 7.659197 -838.223938 29.795891 -23.759109 109.605331 1005.029541
[R_mouthFront]
9 551.629089 934.514282 -339.151367 0.000029 -2.803930 79.119133 1136.941162
10 551.629089 934.514282 -339.151367 0.000029 -2.803930 79.119133 1136.941162
[TopMouth]
9 461.269867 -56.106091 -0.008583 -0.000059 -0.000268 92.025169 464.669525
10 461.269867 -56.106091 -0.008583 -0.000059 -0.000268 92.025169 464.669525
[weapon_bone]
9 -987.239868 1448.372803 0.001431 0.000000 89.965736 -31.038221 1752.833740
10 -987.239868 1448.372803 0.001431 0.000000 89.965736 -31.038221 1752.833740
